<svg width="24" height="24" viewBox="0 0 24 24" fill="none" xmlns="http://www.w3.org/2000/svg">
<path opacity="0.15" d="M12 21C16.9706 21 21 16.9706 21 12C21 7.02944 16.9706 3 12 3V12H3C3 16.9706 7.02944 21 12 21Z" fill="#292D32"/>
<path d="M12 20.25C7.44365 20.25 3.75 16.5563 3.75 12H2.25C2.25 17.3848 6.61522 21.75 12 21.75V20.25ZM3.75 12C3.75 7.44365 7.44365 3.75 12 3.75V2.25C6.61522 2.25 2.25 6.61522 2.25 12H3.75ZM12 3.75C16.5563 3.75 20.25 7.44365 20.25 12H21.75C21.75 6.61522 17.3848 2.25 12 2.25V3.75ZM20.25 12C20.25 14.2784 19.3274 16.3399 17.8336 17.8336L18.8943 18.8943C20.6579 17.1307 21.75 14.6922 21.75 12H20.25ZM17.8336 17.8336C16.3399 19.3274 14.2784 20.25 12 20.25V21.75C14.6922 21.75 17.1307 20.6579 18.8943 18.8943L17.8336 17.8336ZM11.25 3V12H12.75V3H11.25ZM12 11.25H3V12.75H12V11.25ZM11.4697 12.5303L17.8336 18.8943L18.8943 17.8336L12.5303 11.4697L11.4697 12.5303Z" fill="#292D32"/>
</svg>
