<svg width="22" height="22" viewBox="0 0 100 100" fill="none" xmlns="http://www.w3.org/2000/svg">
<circle cx="50" cy="50" r="50" fill="white"/>
<path d="M22.8352 67V32.0909H35.2784C37.9943 32.0909 40.2443 32.5852 42.0284 33.5739C43.8125 34.5625 45.1477 35.9148 46.0341 37.6307C46.9205 39.3352 47.3636 41.2557 47.3636 43.392C47.3636 45.5398 46.9148 47.4716 46.017 49.1875C45.1307 50.892 43.7898 52.2443 41.9943 53.2443C40.2102 54.233 37.9659 54.7273 35.2614 54.7273H26.7045V50.2614H34.7841C36.5 50.2614 37.892 49.9659 38.9602 49.375C40.0284 48.7727 40.8125 47.9545 41.3125 46.9205C41.8125 45.8864 42.0625 44.7102 42.0625 43.392C42.0625 42.0739 41.8125 40.9034 41.3125 39.8807C40.8125 38.858 40.0227 38.0568 38.9432 37.4773C37.875 36.8977 36.4659 36.608 34.7159 36.608H28.1023V67H22.8352ZM72.5781 41.2614C72.3963 39.6477 71.6463 38.3977 70.3281 37.5114C69.0099 36.6136 67.3509 36.1648 65.3509 36.1648C63.919 36.1648 62.6804 36.392 61.6349 36.8466C60.5895 37.2898 59.777 37.9034 59.1974 38.6875C58.6293 39.4602 58.3452 40.3409 58.3452 41.3295C58.3452 42.1591 58.5384 42.875 58.9247 43.4773C59.3224 44.0795 59.8395 44.5852 60.4759 44.9943C61.1236 45.392 61.8168 45.7273 62.5554 46C63.294 46.2614 64.0043 46.4773 64.6861 46.6477L68.0952 47.5341C69.2088 47.8068 70.3509 48.1761 71.5213 48.642C72.6918 49.108 73.777 49.7216 74.777 50.483C75.777 51.2443 76.5838 52.1875 77.1974 53.3125C77.8224 54.4375 78.1349 55.7841 78.1349 57.3523C78.1349 59.3295 77.6236 61.0852 76.6009 62.6193C75.5895 64.1534 74.1179 65.3636 72.1861 66.25C70.2656 67.1364 67.9418 67.5795 65.2145 67.5795C62.6009 67.5795 60.3395 67.1648 58.4304 66.3352C56.5213 65.5057 55.027 64.3295 53.9474 62.8068C52.8679 61.2727 52.2713 59.4545 52.1577 57.3523H57.4418C57.544 58.6136 57.9531 59.6648 58.669 60.5057C59.3963 61.3352 60.3224 61.9545 61.4474 62.3636C62.5838 62.7614 63.8281 62.9602 65.1804 62.9602C66.669 62.9602 67.9929 62.7273 69.152 62.2614C70.3224 61.7841 71.2429 61.125 71.9134 60.2841C72.5838 59.4318 72.919 58.4375 72.919 57.3011C72.919 56.267 72.6236 55.4205 72.0327 54.7614C71.4531 54.1023 70.6634 53.5568 69.6634 53.125C68.6747 52.6932 67.5554 52.3125 66.3054 51.983L62.1804 50.858C59.3849 50.0966 57.169 48.9773 55.5327 47.5C53.9077 46.0227 53.0952 44.0682 53.0952 41.6364C53.0952 39.625 53.6406 37.8693 54.7315 36.3693C55.8224 34.8693 57.2997 33.7045 59.1634 32.875C61.027 32.0341 63.1293 31.6136 65.4702 31.6136C67.8338 31.6136 69.919 32.0284 71.7259 32.858C73.544 33.6875 74.9759 34.8295 76.0213 36.2841C77.0668 37.7273 77.6122 39.3864 77.6577 41.2614H72.5781Z" fill="#12191C"/>
</svg>
