<svg width="46" height="46" viewBox="0 0 100 100" fill="none" xmlns="http://www.w3.org/2000/svg">
<circle cx="50" cy="50" r="50" fill="#292D32"/>
<path d="M23.2273 67V32.0909H35.0227C37.7614 32.0909 40 32.5852 41.7386 33.5739C43.4886 34.5511 44.7841 35.875 45.625 37.5455C46.4659 39.2159 46.8864 41.0795 46.8864 43.1364C46.8864 45.1932 46.4659 47.0625 45.625 48.7443C44.7955 50.4261 43.5114 51.767 41.7727 52.767C40.0341 53.7557 37.8068 54.25 35.0909 54.25H26.6364V50.5H34.9545C36.8295 50.5 38.3352 50.1761 39.4716 49.5284C40.608 48.8807 41.4318 48.0057 41.9432 46.9034C42.4659 45.7898 42.7273 44.5341 42.7273 43.1364C42.7273 41.7386 42.4659 40.4886 41.9432 39.3864C41.4318 38.2841 40.6023 37.4205 39.4545 36.7955C38.3068 36.1591 36.7841 35.8409 34.8864 35.8409H27.4545V67H23.2273ZM72.7869 40.8182C72.5824 39.0909 71.7528 37.75 70.2983 36.7955C68.8438 35.8409 67.0597 35.3636 64.946 35.3636C63.4006 35.3636 62.0483 35.6136 60.8892 36.1136C59.7415 36.6136 58.8438 37.3011 58.196 38.1761C57.5597 39.0511 57.2415 40.0455 57.2415 41.1591C57.2415 42.0909 57.4631 42.892 57.9062 43.5625C58.3608 44.2216 58.9403 44.7727 59.6449 45.2159C60.3494 45.6477 61.0881 46.0057 61.8608 46.2898C62.6335 46.5625 63.3438 46.7841 63.9915 46.9545L67.5369 47.9091C68.446 48.1477 69.4574 48.4773 70.571 48.8977C71.696 49.3182 72.7699 49.892 73.7926 50.6193C74.8267 51.3352 75.679 52.2557 76.3494 53.3807C77.0199 54.5057 77.3551 55.8864 77.3551 57.5227C77.3551 59.4091 76.8608 61.1136 75.8722 62.6364C74.8949 64.1591 73.4631 65.3693 71.5767 66.267C69.7017 67.1648 67.4233 67.6136 64.7415 67.6136C62.2415 67.6136 60.0767 67.2102 58.2472 66.4034C56.429 65.5966 54.9972 64.4716 53.9517 63.0284C52.9176 61.5852 52.3324 59.9091 52.196 58H56.5597C56.6733 59.3182 57.1165 60.4091 57.8892 61.2727C58.6733 62.125 59.6619 62.7614 60.8551 63.1818C62.0597 63.5909 63.3551 63.7955 64.7415 63.7955C66.3551 63.7955 67.804 63.5341 69.0881 63.0114C70.3722 62.4773 71.3892 61.7386 72.1392 60.7955C72.8892 59.8409 73.2642 58.7273 73.2642 57.4545C73.2642 56.2955 72.9403 55.3523 72.2926 54.625C71.6449 53.8977 70.7926 53.3068 69.7358 52.8523C68.679 52.3977 67.5369 52 66.3097 51.6591L62.0142 50.4318C59.2869 49.6477 57.1278 48.5284 55.5369 47.0739C53.946 45.6193 53.1506 43.7159 53.1506 41.3636C53.1506 39.4091 53.679 37.7045 54.7358 36.25C55.804 34.7841 57.2358 33.6477 59.0312 32.8409C60.8381 32.0227 62.8551 31.6136 65.0824 31.6136C67.3324 31.6136 69.3324 32.017 71.0824 32.8239C72.8324 33.6193 74.2188 34.7102 75.2415 36.0966C76.2756 37.483 76.821 39.0568 76.8778 40.8182H72.7869Z" fill="white"/>
</svg>
